<svg width="19" height="19" viewBox="0 0 19 19" fill="none" xmlns="http://www.w3.org/2000/svg">
<path d="M13.9727 10.9081C13.7754 11.0993 13.6848 11.3758 13.7297 11.6469L14.4068 15.3941C14.4639 15.7117 14.3299 16.0331 14.0641 16.2166C13.8036 16.407 13.4571 16.4299 13.173 16.2775L9.79981 14.5182C9.68252 14.4557 9.55228 14.4222 9.419 14.4184H9.21261C9.14101 14.4291 9.07095 14.4519 9.00697 14.487L5.63304 16.2547C5.46625 16.3385 5.27737 16.3682 5.0923 16.3385C4.64142 16.2532 4.34059 15.8236 4.41446 15.3705L5.0923 11.6233C5.13723 11.3499 5.0466 11.0719 4.84934 10.8777L2.09917 8.21201C1.86916 7.98886 1.78919 7.65375 1.8943 7.35138C1.99635 7.04978 2.25682 6.82968 2.57137 6.78017L6.35657 6.23105C6.64446 6.20134 6.89731 6.02617 7.02678 5.76722L8.69471 2.34756C8.73431 2.2714 8.78534 2.20133 8.84703 2.14192L8.91558 2.08861C8.95137 2.04901 8.9925 2.01626 9.0382 1.9896L9.12121 1.95914L9.25069 1.90582H9.57132C9.85769 1.93553 10.1098 2.10689 10.2415 2.36279L11.9316 5.76722C12.0534 6.01627 12.2903 6.18916 12.5637 6.23105L16.3489 6.78017C16.6688 6.82587 16.9361 7.04674 17.042 7.35138C17.1417 7.65679 17.0557 7.9919 16.8211 8.21201L13.9727 10.9081Z" fill="#F6B76F" style="fill:#F6B76F;fill:color(display-p3 0.9647 0.7176 0.4353);fill-opacity:1;"/>
</svg>
